<svg width="8" height="14" viewBox="0 0 8 14" fill="none" xmlns="http://www.w3.org/2000/svg">
<path d="M7.78973 12.9144L1.6421 7.44885C1.50727 7.32959 1.43164 7.16862 1.43164 7.00087C1.43164 6.83312 1.50727 6.67214 1.6421 6.55289L7.7884 1.08615C7.92316 0.966155 7.99867 0.804652 7.99867 0.636419C7.99867 0.468186 7.92316 0.306682 7.7884 0.18669C7.72256 0.127602 7.64388 0.0806439 7.55698 0.0485811C7.47009 0.0165183 7.37673 0 7.28243 0C7.18812 0 7.09477 0.0165183 7.00787 0.0485811C6.92097 0.0806439 6.84229 0.127602 6.77646 0.18669L0.630156 5.6511C0.226278 6.01102 0 6.49529 0 6.9997C0 7.50412 0.226278 7.98838 0.630156 8.3483L6.77646 13.8127C6.84231 13.872 6.92107 13.9191 7.0081 13.9513C7.09512 13.9834 7.18862 14 7.28309 14C7.37756 14 7.47107 13.9834 7.55809 13.9513C7.64511 13.9191 7.72388 13.872 7.78973 13.8127C7.92449 13.6927 8 13.5312 8 13.363C8 13.1947 7.92449 13.0332 7.78973 12.9133" fill="#211A1A"/>
</svg>
