<svg width="9" height="9" viewBox="0 0 9 9" fill="none" xmlns="http://www.w3.org/2000/svg">
<path fill-rule="evenodd" clip-rule="evenodd" d="M0.146031 0.146031C0.239656 0.0525227 0.36657 0 0.498893 0C0.631217 0 0.75813 0.0525227 0.851755 0.146031L8.84107 8.13535C8.89013 8.18106 8.92948 8.23619 8.95677 8.29744C8.98407 8.35869 8.99874 8.42481 8.99992 8.49186C9.00111 8.5589 8.98877 8.6255 8.96366 8.68768C8.93855 8.74985 8.90117 8.80633 8.85375 8.85375C8.80633 8.90117 8.74985 8.93855 8.68768 8.96366C8.6255 8.98877 8.5589 9.00111 8.49186 8.99992C8.42481 8.99874 8.35869 8.98407 8.29744 8.95677C8.23619 8.92948 8.18106 8.89013 8.13535 8.84107L0.146031 0.851755C0.0525227 0.75813 0 0.631217 0 0.498893C0 0.36657 0.0525227 0.239656 0.146031 0.146031Z" fill="#272727"/>
<path fill-rule="evenodd" clip-rule="evenodd" d="M8.84175 0.146031C8.93526 0.239656 8.98779 0.36657 8.98779 0.498893C8.98779 0.631217 8.93526 0.75813 8.84175 0.851755L0.852434 8.84107C0.757777 8.92928 0.63258 8.97729 0.503219 8.97501C0.373858 8.97273 0.250433 8.92033 0.158946 8.82884C0.06746 8.73735 0.0150555 8.61393 0.0127731 8.48457C0.0104907 8.3552 0.0585084 8.23001 0.146711 8.13535L8.13603 0.146031C8.22966 0.0525227 8.35657 0 8.48889 0C8.62122 0 8.74813 0.0525227 8.84175 0.146031Z" fill="#272727"/>
</svg>
