<svg width="14" height="11" viewBox="0 0 14 11" fill="none" xmlns="http://www.w3.org/2000/svg">
<path d="M1.25689 11C0.898593 11 0.599667 10.879 0.360111 10.637C0.120556 10.395 0.000518519 10.0928 0 9.73028V1.26971C0 0.907762 0.120037 0.605785 0.360111 0.363786C0.600185 0.121786 0.898852 0.000523809 1.25611 0H12.7439C13.1017 0 13.4003 0.121262 13.6399 0.363786C13.8794 0.606309 13.9995 0.908286 14 1.26971V9.73107C14 10.0925 13.88 10.3945 13.6399 10.637C13.3998 10.8795 13.1011 11.0005 12.7439 11H1.25689ZM7 5.59114L0.777778 1.48107V9.73107C0.777778 9.87197 0.82263 9.98774 0.912333 10.0784C1.00204 10.169 1.11689 10.2143 1.25689 10.2143H12.7439C12.8834 10.2143 12.998 10.169 13.0877 10.0784C13.1774 9.98774 13.2222 9.87171 13.2222 9.73028V1.48029L7 5.59114ZM7 4.71428L12.9827 0.785714H1.01733L7 4.71428ZM0.777778 1.48107V0.785714V9.73107C0.777778 9.87197 0.82263 9.98774 0.912333 10.0784C1.00204 10.169 1.11689 10.2143 1.25689 10.2143H0.777778V1.48107Z" fill="#AD9B9B"/>
</svg>
