<svg width="8" height="14" viewBox="0 0 8 14" fill="none" xmlns="http://www.w3.org/2000/svg">
<path d="M0.210271 1.08558L6.3579 6.55115C6.49273 6.67041 6.56836 6.83138 6.56836 6.99913C6.56836 7.16688 6.49273 7.32786 6.3579 7.44711L0.211604 12.9139C0.0768444 13.0338 0.00133379 13.1953 0.00133379 13.3636C0.00133379 13.5318 0.0768444 13.6933 0.211604 13.8133C0.277436 13.8724 0.356119 13.9194 0.443016 13.9514C0.529914 13.9835 0.623267 14 0.717574 14C0.811881 14 0.905234 13.9835 0.992131 13.9514C1.07903 13.9194 1.15771 13.8724 1.22354 13.8133L7.36984 8.3489C7.77372 7.98898 8 7.50471 8 7.0003C8 6.49588 7.77372 6.01162 7.36984 5.6517L1.22354 0.18729C1.15769 0.128024 1.07893 0.0809126 0.991905 0.0487432C0.904884 0.0165749 0.811375 0 0.716907 0C0.622439 0 0.52893 0.0165749 0.44191 0.0487432C0.354889 0.0809126 0.276124 0.128024 0.210271 0.18729C0.0755112 0.307282 0 0.468785 0 0.637018C0 0.805251 0.0755112 0.966755 0.210271 1.08675" fill="#211A1A"/>
</svg>
