<svg width="14" height="14" viewBox="0 0 14 14" fill="none" xmlns="http://www.w3.org/2000/svg">
<path d="M5.04647 9.60478C5.04647 9.77748 4.97786 9.9431 4.85574 10.0652C4.73363 10.1873 4.568 10.2559 4.3953 10.2559C4.2226 10.2559 4.05698 10.1873 3.93486 10.0652C3.81275 9.9431 3.74414 9.77748 3.74414 9.60478C3.74414 9.43208 3.81275 9.26645 3.93486 9.14433C4.05698 9.02222 4.2226 8.95361 4.3953 8.95361C4.568 8.95361 4.73363 9.02222 4.85574 9.14433C4.97786 9.26645 5.04647 9.43208 5.04647 9.60478ZM7.65112 9.60478C7.65112 9.77748 7.58251 9.9431 7.4604 10.0652C7.33828 10.1873 7.17265 10.2559 6.99995 10.2559C6.82726 10.2559 6.66163 10.1873 6.53951 10.0652C6.4174 9.9431 6.34879 9.77748 6.34879 9.60478C6.34879 9.43208 6.4174 9.26645 6.53951 9.14433C6.66163 9.02222 6.82726 8.95361 6.99995 8.95361C7.17265 8.95361 7.33828 9.02222 7.4604 9.14433C7.58251 9.26645 7.65112 9.43208 7.65112 9.60478ZM9.60461 10.2559C9.7773 10.2559 9.94293 10.1873 10.065 10.0652C10.1872 9.9431 10.2558 9.77748 10.2558 9.60478C10.2558 9.43208 10.1872 9.26645 10.065 9.14433C9.94293 9.02222 9.7773 8.95361 9.60461 8.95361C9.43191 8.95361 9.26628 9.02222 9.14416 9.14433C9.02205 9.26645 8.95344 9.43208 8.95344 9.60478C8.95344 9.77748 9.02205 9.9431 9.14416 10.0652C9.26628 10.1873 9.43191 10.2559 9.60461 10.2559Z" fill="#AD9B9B"/>
<path fill-rule="evenodd" clip-rule="evenodd" d="M2.60465 4.39535V5.24381C2.45705 5.2538 2.31771 5.26769 2.1866 5.28549C1.60056 5.36363 1.10698 5.53293 0.714977 5.92428C0.322977 6.31628 0.154977 6.80986 0.076186 7.39591C-9.70308e-09 7.96046 0 8.6787 0 9.56884V9.64047C0 10.5306 -9.70308e-09 11.2488 0.076186 11.8134C0.154326 12.3994 0.323628 12.893 0.714977 13.285C1.10698 13.677 1.60056 13.845 2.1866 13.9245C2.75116 14 3.4694 14 4.35954 14H9.64047C10.5306 14 11.2488 14 11.8134 13.9245C12.3994 13.845 12.893 13.677 13.285 13.285C13.677 12.893 13.845 12.3994 13.9245 11.8134C14 11.2488 14 10.5306 14 9.64047V9.56884C14 8.6787 14 7.96046 13.9245 7.39591C13.845 6.80986 13.677 6.31628 13.285 5.92428C12.893 5.53228 12.3994 5.36428 11.8134 5.28549C11.6745 5.2671 11.5351 5.25321 11.3953 5.24381V4.39535C11.3953 3.22963 10.9323 2.11166 10.108 1.28737C9.28369 0.46308 8.16572 0 7 0C5.83428 0 4.71631 0.46308 3.89202 1.28737C3.06773 2.11166 2.60465 3.22963 2.60465 4.39535ZM7 0.976744C6.09333 0.976744 5.22379 1.33692 4.58268 1.97803C3.94157 2.61914 3.5814 3.48868 3.5814 4.39535V5.21126C3.8245 5.20952 4.08388 5.20887 4.35954 5.2093H9.64047C9.91612 5.2093 10.1755 5.20995 10.4186 5.21126V4.39535C10.4186 2.50698 8.88837 0.976744 7 0.976744ZM2.31684 6.25312C1.83888 6.31758 1.58623 6.43544 1.40586 6.61516C1.22549 6.79554 1.10828 7.04819 1.04381 7.52679C0.978046 8.01842 0.976744 8.67023 0.976744 9.60465C0.976744 10.5391 0.978046 11.1909 1.04381 11.6832C1.10828 12.1611 1.22614 12.4138 1.40586 12.5941C1.58623 12.7745 1.83888 12.8917 2.31749 12.9562C2.80847 13.022 3.46093 13.0233 4.39535 13.0233H9.60465C10.5391 13.0233 11.1909 13.022 11.6832 12.9562C12.1611 12.8917 12.4138 12.7739 12.5941 12.5941C12.7745 12.4138 12.8917 12.1611 12.9562 11.6825C13.022 11.1909 13.0233 10.5391 13.0233 9.60465C13.0233 8.67023 13.022 8.01777 12.9562 7.52614C12.8917 7.04819 12.7739 6.79554 12.5941 6.61516C12.4138 6.43479 12.1611 6.31758 11.6825 6.25312C11.1909 6.18735 10.5391 6.18605 9.60465 6.18605H4.39535C3.46093 6.18605 2.80847 6.18735 2.31684 6.25312Z" fill="#AD9B9B"/>
</svg>
