<svg width="16" height="16" viewBox="0 0 16 16" fill="none" xmlns="http://www.w3.org/2000/svg">
<path d="M4.80834 1C4.96115 1 5.11118 1.0409 5.24286 1.11844C5.37453 1.19599 5.48306 1.30736 5.55717 1.44099L6.60443 3.32742C6.67195 3.4491 6.7088 3.58541 6.71179 3.72455C6.71477 3.86368 6.6838 4.00145 6.62155 4.12592L5.61283 6.14421C5.61283 6.14421 5.90526 7.64744 7.12891 8.87152C8.35299 10.0952 9.85108 10.3829 9.85108 10.3829L11.8689 9.37374C11.9935 9.31142 12.1313 9.28041 12.2705 9.28339C12.4097 9.28638 12.5461 9.32327 12.6679 9.39087L14.5603 10.4433C14.6936 10.5175 14.8047 10.626 14.882 10.7576C14.9593 10.8892 15 11.039 15 11.1917V13.3637C15 14.47 13.9724 15.2689 12.9243 14.9153C10.7716 14.1887 7.4299 12.8058 5.31184 10.6877C3.19422 8.56968 1.81087 5.2284 1.08473 3.07524C0.731076 2.02756 1.53 1 2.63634 1H4.80834Z" stroke="#AD9B9B" stroke-linejoin="round"/>
</svg>
