<svg width="17" height="17" viewBox="0 0 17 17" fill="none" xmlns="http://www.w3.org/2000/svg">
<path d="M6.71053 2.7625V2.975H10.2895V2.7625C10.2895 2.31163 10.1009 1.87923 9.76535 1.56042C9.42976 1.24161 8.9746 1.0625 8.5 1.0625C8.0254 1.0625 7.57024 1.24161 7.23465 1.56042C6.89906 1.87923 6.71053 2.31163 6.71053 2.7625ZM5.59211 2.975V2.7625C5.59211 2.02984 5.89847 1.32719 6.44381 0.809117C6.98914 0.291048 7.72878 0 8.5 0C9.27122 0 10.0109 0.291048 10.5562 0.809117C11.1015 1.32719 11.4079 2.02984 11.4079 2.7625V2.975H16.4408C16.5891 2.975 16.7313 3.03097 16.8362 3.1306C16.9411 3.23023 17 3.36535 17 3.50625C17 3.64715 16.9411 3.78227 16.8362 3.8819C16.7313 3.98153 16.5891 4.0375 16.4408 4.0375H15.1358L14.2411 14.1763C14.1731 14.9462 13.8031 15.6638 13.2045 16.1868C12.6058 16.7098 11.8221 17 11.0088 17H5.99116C5.17793 16.9999 4.3944 16.7096 3.79583 16.1867C3.19727 15.6637 2.82734 14.9462 2.75937 14.1763L1.86463 4.0375H0.559211C0.410899 4.0375 0.268661 3.98153 0.163789 3.8819C0.0589167 3.78227 0 3.64715 0 3.50625C0 3.36535 0.0589167 3.23023 0.163789 3.1306C0.268661 3.03097 0.410899 2.975 0.559211 2.975H5.59211ZM3.87376 14.0875C3.9183 14.5919 4.16066 15.062 4.55283 15.4046C4.94499 15.7473 5.45835 15.9375 5.99116 15.9375H11.0088C11.5417 15.9376 12.0552 15.7474 12.4475 15.4048C12.8397 15.0621 13.0821 14.5919 13.1267 14.0875L14.0134 4.0375H2.98663L3.87376 14.0875ZM7.38158 6.90625C7.38158 6.83649 7.36711 6.7674 7.33901 6.70295C7.31091 6.6385 7.26972 6.57993 7.21779 6.5306C7.16586 6.48127 7.10421 6.44214 7.03637 6.41544C6.96852 6.38874 6.8958 6.375 6.82237 6.375C6.74893 6.375 6.67621 6.38874 6.60837 6.41544C6.54052 6.44214 6.47887 6.48127 6.42695 6.5306C6.37502 6.57993 6.33383 6.6385 6.30573 6.70295C6.27762 6.7674 6.26316 6.83649 6.26316 6.90625V13.0688C6.26316 13.1385 6.27762 13.2076 6.30573 13.2721C6.33383 13.3365 6.37502 13.3951 6.42695 13.4444C6.47887 13.4937 6.54052 13.5329 6.60837 13.5596C6.67621 13.5863 6.74893 13.6 6.82237 13.6C6.8958 13.6 6.96852 13.5863 7.03637 13.5596C7.10421 13.5329 7.16586 13.4937 7.21779 13.4444C7.26972 13.3951 7.31091 13.3365 7.33901 13.2721C7.36711 13.2076 7.38158 13.1385 7.38158 13.0688V6.90625ZM10.1776 6.375C10.4863 6.375 10.7368 6.613 10.7368 6.90625V13.0688C10.7368 13.2096 10.6779 13.3448 10.5731 13.4444C10.4682 13.544 10.3259 13.6 10.1776 13.6C10.0293 13.6 9.88708 13.544 9.78221 13.4444C9.67734 13.3448 9.61842 13.2096 9.61842 13.0688V6.90625C9.61842 6.613 9.86895 6.375 10.1776 6.375Z" fill="white"/>
</svg>
