<svg width="18" height="18" viewBox="0 0 18 18" fill="none" xmlns="http://www.w3.org/2000/svg">
<path d="M7.10526 2.925V3.15H10.8947V2.925C10.8947 2.44761 10.6951 1.98977 10.3398 1.65221C9.98445 1.31464 9.50252 1.125 9 1.125C8.49749 1.125 8.01555 1.31464 7.66022 1.65221C7.30489 1.98977 7.10526 2.44761 7.10526 2.925ZM5.92105 3.15V2.925C5.92105 2.14924 6.24544 1.40526 6.82286 0.856713C7.40027 0.308169 8.18341 0 9 0C9.81659 0 10.5997 0.308169 11.1771 0.856713C11.7546 1.40526 12.0789 2.14924 12.0789 2.925V3.15H17.4079C17.5649 3.15 17.7155 3.20926 17.8266 3.31475C17.9376 3.42024 18 3.56332 18 3.7125C18 3.86168 17.9376 4.00476 17.8266 4.11025C17.7155 4.21574 17.5649 4.275 17.4079 4.275H16.0262L15.0788 15.0102C15.0068 15.8254 14.6151 16.5852 13.9812 17.139C13.3473 17.6927 12.5176 18 11.6564 18H6.34358C5.48251 17.9999 4.65289 17.6926 4.01912 17.1388C3.38534 16.5851 2.99366 15.8253 2.92168 15.0102L1.97432 4.275H0.592105C0.435069 4.275 0.284465 4.21574 0.173424 4.11025C0.0623823 4.00476 0 3.86168 0 3.7125C0 3.56332 0.0623823 3.42024 0.173424 3.31475C0.284465 3.20926 0.435069 3.15 0.592105 3.15H5.92105ZM4.10163 14.9161C4.14878 15.4502 4.4054 15.948 4.82064 16.3108C5.23588 16.6736 5.77943 16.875 6.34358 16.875H11.6564C12.2207 16.8751 12.7643 16.6737 13.1797 16.3109C13.595 15.9481 13.8517 15.4503 13.8988 14.9161L14.8377 4.275H3.16232L4.10163 14.9161ZM7.81579 7.3125C7.81579 7.23863 7.80047 7.16549 7.77072 7.09724C7.74096 7.029 7.69735 6.96698 7.64237 6.91475C7.58738 6.86252 7.52211 6.82109 7.45027 6.79282C7.37844 6.76455 7.30144 6.75 7.22368 6.75C7.14593 6.75 7.06893 6.76455 6.9971 6.79282C6.92526 6.82109 6.85998 6.86252 6.805 6.91475C6.75002 6.96698 6.70641 7.029 6.67665 7.09724C6.64689 7.16549 6.63158 7.23863 6.63158 7.3125V13.8375C6.63158 13.9114 6.64689 13.9845 6.67665 14.0528C6.70641 14.121 6.75002 14.183 6.805 14.2352C6.85998 14.2875 6.92526 14.3289 6.9971 14.3572C7.06893 14.3855 7.14593 14.4 7.22368 14.4C7.30144 14.4 7.37844 14.3855 7.45027 14.3572C7.52211 14.3289 7.58738 14.2875 7.64237 14.2352C7.69735 14.183 7.74096 14.121 7.77072 14.0528C7.80047 13.9845 7.81579 13.9114 7.81579 13.8375V7.3125ZM10.7763 6.75C11.1032 6.75 11.3684 7.002 11.3684 7.3125V13.8375C11.3684 13.9867 11.306 14.1298 11.195 14.2352C11.084 14.3407 10.9334 14.4 10.7763 14.4C10.6193 14.4 10.4687 14.3407 10.3576 14.2352C10.2466 14.1298 10.1842 13.9867 10.1842 13.8375V7.3125C10.1842 7.002 10.4495 6.75 10.7763 6.75Z" fill="#B0041A"/>
</svg>
