<svg width="51" height="51" viewBox="0 0 51 51" fill="none" xmlns="http://www.w3.org/2000/svg">
<rect width="51" height="51" rx="25.5" fill="#676767"/>
<path d="M14.4113 31.7195L24.6597 21.6329C24.8833 21.4117 25.1852 21.2876 25.4997 21.2876C25.8143 21.2876 26.1161 21.4117 26.3397 21.6329L36.5903 31.7173C36.8153 31.9384 37.1182 32.0623 37.4336 32.0623C37.7491 32.0623 38.0519 31.9384 38.2769 31.7173C38.3877 31.6093 38.4757 31.4802 38.5359 31.3376C38.596 31.195 38.627 31.0418 38.627 30.8871C38.627 30.7324 38.596 30.5792 38.5359 30.4366C38.4757 30.2941 38.3877 30.165 38.2769 30.057L28.0306 19.9726C27.3558 19.3099 26.4477 18.9387 25.5019 18.9387C24.5561 18.9387 23.648 19.3099 22.9731 19.9726L12.7269 30.057C12.6158 30.165 12.5274 30.2942 12.4671 30.437C12.4068 30.5798 12.3757 30.7332 12.3757 30.8882C12.3757 31.0432 12.4068 31.1966 12.4671 31.3394C12.5274 31.4822 12.6158 31.6114 12.7269 31.7195C12.9519 31.9406 13.2547 32.0645 13.5702 32.0645C13.8856 32.0645 14.1885 31.9406 14.4135 31.7195" fill="white"/>
</svg>
